HIERARCHY
ROOT pelvis
{
	OFFSET 0.000000 0.000000 0.000000
	CHANNELS 6 Xposition Yposition Zposition Zrotation Xrotation Yrotation
	JOINT lfemur
	{
		OFFSET 11.446000 0.000000 0.000000
		CHANNELS 3 Zrotation Xrotation Yrotation
		JOINT ltibia
		{
			OFFSET 0.000000 -42.030400 0.000000
			CHANNELS 3 Zrotation Xrotation Yrotation
			JOINT lfoot
			{
				OFFSET 0.000000 -39.930200 0.000000
				CHANNELS 3 Zrotation Xrotation Yrotation
				JOINT ltoes
				{
					OFFSET 0.000000 0.000000 11.775800
					CHANNELS 3 Zrotation Xrotation Yrotation
					End Site
					{
					    OFFSET 0.000000 0.000000 5.000000
					}
				}
			}
		}
	}
	JOINT rfemur
	{
		OFFSET -11.446000 0.000000 0.000000
		CHANNELS 3 Zrotation Xrotation Yrotation
		JOINT rtibia
		{
			OFFSET 0.000000 -42.030400 0.000000
			CHANNELS 3 Zrotation Xrotation Yrotation
			JOINT rfoot
			{
				OFFSET 0.000000 -39.930200 0.000000
				CHANNELS 3 Zrotation Xrotation Yrotation
				JOINT rtoes
				{
					OFFSET 0.000000 0.000000 11.775800
					CHANNELS 3 Zrotation Xrotation Yrotation
					End Site
					{
					    OFFSET 0.000000 0.000000 5.000000
					}
				}
			}
		}
	}
	JOINT thorax
	{
		OFFSET 0.000000 11.255600 -5.000000
		CHANNELS 3 Zrotation Xrotation Yrotation
		JOINT head
		{
			OFFSET 0.000000 43.799300 0.000000
			CHANNELS 3 Zrotation Xrotation Yrotation
			End Site
			{
			    OFFSET 0.000000 5.000000 0.000000
			}
		}
		JOINT lclavicle
		{
			OFFSET 0.000000 39.863000 0.000000
			CHANNELS 3 Zrotation Xrotation Yrotation
			JOINT lhumerus
			{
				OFFSET 17.380600 4.958300 0.000000
				CHANNELS 3 Zrotation Xrotation Yrotation
				JOINT lradius
				{
					OFFSET 0.000000 -27.561300 0.000000
					CHANNELS 3 Zrotation Xrotation Yrotation
					JOINT lhand
					{
						OFFSET 0.000000 -26.933000 0.000000
						CHANNELS 3 Zrotation Xrotation Yrotation
						End Site
						{
						    OFFSET 0.000000 -5.000000 0.000000
						}
					}
				}
			}
		}
		JOINT rclavicle
		{
			OFFSET 0.000000 39.863000 0.000000
			CHANNELS 3 Zrotation Xrotation Yrotation
			JOINT rhumerus
			{
				OFFSET -17.380600 4.958300 0.000000
				CHANNELS 3 Zrotation Xrotation Yrotation
				JOINT rradius
				{
					OFFSET 0.000000 -27.561300 0.000000
					CHANNELS 3 Zrotation Xrotation Yrotation
					JOINT rhand
					{
						OFFSET 0.000000 -26.933000 0.000000
						CHANNELS 3 Zrotation Xrotation Yrotation
						End Site
						{
						    OFFSET 0.000000 -5.000000 0.000000
						}
					}
				}
			}
		}
	}
}
MOTION
Frames: 14
Frame Time: 0.008342
109.881400 87.763500 12.542200 -2.120048 -4.400397 -110.117565 -1.595319 -17.198033 2.169347 0.000000 17.107443 -0.000000 -0.000000 14.349109 5.040165 0.000000 -1.428589 0.000000 1.340649 4.072875 -12.254441 0.000000 6.299962 -0.000000 -0.000000 2.690259 -7.858314 -0.000000 -29.514807 -0.000000 3.089429 9.673524 -2.849182 19.369612 21.057180 -7.980633 -12.627535 -0.000000 1.892366 32.505351 10.997024 -32.082934 -180.000030 -69.547554 156.217821 11.901107 -12.876830 -0.000000 23.675747 0.000000 0.295146 -38.600212 3.225055 26.647737 -180.000035 -70.782432 -172.837614 7.047511 -5.841535 -0.000000 
109.819600 87.743500 12.562300 -1.902219 -4.395650 -109.776107 -1.694332 -17.584026 2.304591 -0.000000 17.068597 0.000000 -0.000000 14.368936 4.927748 -0.000000 -1.427507 0.000000 1.419222 3.940173 -12.524457 -0.000000 6.312663 -0.000000 -0.000000 2.627662 -7.967224 0.000000 -29.514551 -0.000000 3.108930 9.593339 -2.783611 19.238026 21.093795 -7.702610 -12.650485 -0.000000 1.968128 32.568627 10.791785 -32.208793 180.000035 -69.500368 156.524015 11.534041 -12.799167 0.000000 23.730829 0.000000 0.164089 -38.682660 3.016585 26.782831 180.000035 -70.758184 -173.235715 6.651492 -5.707892 -0.000000 
109.740500 87.733600 12.581600 -1.763404 -4.395968 -109.513509 -1.828740 -17.818311 2.527092 0.000000 16.871462 -0.000000 -0.000000 14.451286 4.983164 -0.000000 -1.429726 -0.000000 1.488179 3.944059 -12.418261 -0.000000 6.194046 0.000000 -0.000000 2.633632 -8.323547 -0.000000 -29.514329 0.000000 3.151640 9.631472 -2.750312 19.091240 20.960234 -7.500994 -12.658639 0.000000 1.987758 32.549331 10.678121 -32.113316 180.000032 -69.555328 156.530192 11.476344 -13.103796 -0.000000 23.578992 -0.000000 0.385290 -38.370615 3.209051 26.506936 -180.000037 -70.725994 -172.843740 6.885262 -5.786707 -0.000000 
109.646600 87.724600 12.609400 -1.624514 -4.420042 -109.258299 -2.007397 -18.005557 2.628533 -0.000000 16.630817 -0.000000 -0.000000 14.472760 5.257003 -0.000000 -1.425104 -0.000000 1.491907 3.910943 -12.666703 0.000000 6.150010 0.000000 0.000000 2.606706 -8.316502 -0.000000 -29.514661 -0.000000 3.174714 9.701848 -2.675186 18.927102 20.781597 -7.286754 -12.736085 0.000000 2.243956 32.637771 10.254492 -32.291098 -180.000034 -69.599755 156.994292 11.113477 -13.332450 0.000000 23.641348 -0.000000 0.470726 -38.696364 3.137674 26.528447 180.000036 -70.506651 -173.621082 7.119873 -5.864858 -0.000000 
109.563800 87.707500 12.611800 -1.508117 -4.389868 -109.074430 -2.052476 -18.197625 2.943921 -0.000000 16.452348 0.000000 0.000000 14.478474 5.344087 -0.000000 -1.428054 -0.000000 1.588309 3.977047 -12.479609 -0.000000 5.946590 -0.000000 0.000000 2.728196 -8.574614 -0.000000 -29.514312 -0.000000 3.160020 9.667862 -2.421600 18.965076 20.552374 -7.369221 -12.734767 0.000000 1.963410 32.589737 10.509418 -32.180635 180.000034 -69.606085 155.908761 11.765242 -12.820497 0.000000 23.582275 0.000000 0.465704 -38.428439 3.350563 26.277458 180.000037 -70.495240 -173.505377 7.034913 -5.836919 0.000000 
109.462500 87.698900 12.630300 -1.374222 -4.429136 -108.810262 -2.231312 -18.427026 3.071743 -0.000000 16.319089 -0.000000 -0.000000 14.554141 5.339269 -0.000000 -1.426254 0.000000 1.599923 3.960363 -12.552865 -0.000000 5.884329 -0.000000 -0.000000 2.573865 -8.871531 0.000000 -29.515644 0.000000 3.131377 9.680915 -2.378025 18.768448 20.500971 -7.086840 -12.764815 -0.000000 1.961239 32.600437 10.466955 -32.102882 180.000036 -69.522178 156.493859 11.534804 -13.149453 -0.000000 23.559961 0.000000 0.477263 -38.460505 3.188294 26.259920 180.000037 -70.490394 -173.809959 6.873684 -5.782942 0.000000 
109.340100 87.672400 12.638800 -1.243667 -4.365093 -108.510310 -2.341357 -18.634732 3.154639 0.000000 16.172455 0.000000 0.000000 14.407224 5.383912 -0.000000 -1.427596 -0.000000 1.704250 4.008264 -12.804948 -0.000000 5.783336 0.000000 -0.000000 2.719942 -8.807624 0.000000 -29.515268 0.000000 3.237568 9.722357 -2.358582 18.608620 20.419154 -6.814012 -12.814922 -0.000000 2.193748 32.630176 10.191979 -32.216754 180.000032 -69.605941 156.433908 11.547124 -12.888495 0.000000 23.452558 -0.000000 0.560711 -38.340653 3.259424 26.219079 -180.000035 -70.425573 -173.676773 6.798588 -5.757548 -0.000000 
109.226100 87.647700 12.644800 -1.091248 -4.370813 -108.330802 -2.441638 -18.843477 3.407685 0.000000 15.983529 0.000000 -0.000000 14.495334 5.331744 0.000000 -1.415701 -0.000000 1.756591 3.984943 -12.668739 -0.000000 5.735273 -0.000000 0.000000 2.554005 -9.209021 -0.000000 -29.515603 -0.000000 3.218262 9.764751 -2.236653 18.556025 20.196295 -6.604029 -12.836131 -0.000000 2.323327 32.678835 10.001341 -32.388341 -180.000035 -69.632221 156.356706 11.906288 -12.719480 0.000000 23.378914 -0.000000 0.705723 -38.175224 3.411802 26.206047 180.000035 -70.363160 -173.496531 6.343144 -5.602802 -0.000000 
109.098300 87.635000 12.675500 -0.949546 -4.422736 -108.064243 -2.635590 -19.040397 3.474399 -0.000000 15.736375 -0.000000 0.000000 14.601376 5.395406 0.000000 -1.414090 -0.000000 1.730215 3.957614 -12.766190 -0.000000 5.698875 0.000000 0.000000 2.587494 -9.229971 -0.000000 -29.515408 0.000000 3.129989 9.733372 -2.153890 18.504174 20.080286 -6.400383 -12.835622 -0.000000 2.340892 32.655852 10.009697 -32.310469 180.000033 -69.654911 156.295530 11.689017 -13.032198 -0.000000 23.520108 0.000000 0.621444 -38.612862 3.110498 26.428400 180.000037 -70.384426 -173.360051 5.953706 -5.471973 -0.000000 
108.980700 87.612600 12.685200 -0.798422 -4.378914 -107.817080 -2.733710 -19.182329 3.342238 -0.000000 15.470383 -0.000000 -0.000000 14.512527 5.523704 0.000000 -1.415077 -0.000000 1.822184 3.957873 -12.841490 -0.000000 5.641048 -0.000000 -0.000000 2.544282 -9.399386 0.000000 -29.515436 -0.000000 3.171927 9.749828 -2.159968 18.393392 19.983518 -6.247054 -12.910234 -0.000000 2.379068 32.704528 9.967754 -32.228449 -180.000036 -69.637264 156.476645 11.575671 -12.960992 -0.000000 23.541258 -0.000000 0.832726 -38.565707 3.245894 26.295403 180.000037 -70.372895 -173.496043 5.833961 -5.432373 -0.000000 
108.839100 87.591400 12.687700 -0.689250 -4.365923 -107.510537 -2.857692 -19.364156 3.556661 0.000000 15.328321 -0.000000 0.000000 14.517010 5.318644 0.000000 -1.423994 -0.000000 1.856387 3.984667 -13.252837 0.000000 5.625558 -0.000000 -0.000000 2.486489 -9.323139 -0.000000 -29.515292 -0.000000 3.138845 9.795140 -2.096043 18.457844 19.841487 -6.145665 -12.889274 -0.000000 2.400881 32.639990 9.859422 -32.305001 -180.000035 -69.769818 156.748613 11.770335 -12.938399 0.000000 23.556340 0.000000 0.742263 -38.405030 3.280448 26.061977 -180.000037 -70.314841 -173.712402 6.282324 -5.582763 0.000000 
108.670300 87.569100 12.718400 -0.611990 -4.351674 -107.228970 -3.058383 -19.395273 3.571698 0.000000 14.940461 -0.000000 0.000000 14.687011 5.331699 -0.000000 -1.425208 -0.000000 1.870468 4.110380 -13.493802 -0.000000 5.503041 -0.000000 -0.000000 2.424785 -9.369002 0.000000 -29.515385 -0.000000 3.177630 9.875740 -2.078700 18.385637 19.621774 -6.137324 -12.929855 -0.000000 2.410923 32.608156 9.884575 -32.282114 180.000036 -69.818520 156.647793 11.998222 -13.032290 0.000000 23.448650 0.000000 0.699994 -38.368272 3.176105 26.068281 -180.000037 -70.405410 -173.049890 6.184689 -5.549363 0.000000 
108.520000 87.527600 12.721100 -0.492307 -4.250754 -106.953452 -3.089897 -19.521708 3.766203 -0.000000 14.717148 -0.000000 -0.000000 14.470265 5.353510 -0.000000 -1.420758 -0.000000 2.010746 4.177759 -13.440283 -0.000000 5.461940 -0.000000 -0.000000 2.308008 -9.640121 0.000000 -29.517372 -0.000000 3.220520 9.914348 -2.092928 18.335701 19.488071 -5.804325 -12.968518 0.000000 2.414821 32.596738 9.954229 -32.228554 180.000036 -69.895930 156.127113 11.985180 -13.273452 -0.000000 23.503858 0.000000 0.818325 -38.474572 3.279936 26.044368 -180.000033 -70.335679 -172.774167 6.136684 -5.533500 -0.000000 
108.355100 87.500200 12.723200 -0.383705 -4.186104 -106.754000 -3.181872 -19.573516 3.598219 -0.000000 14.411977 0.000000 0.000000 14.485811 5.414932 -0.000000 -1.411467 -0.000000 2.112725 4.262512 -13.424131 -0.000000 5.383116 -0.000000 -0.000000 2.292236 -9.868020 0.000000 -29.516488 -0.000000 3.231172 9.979814 -2.140635 18.207390 19.367392 -5.594853 -13.009383 0.000000 2.549836 32.584929 9.923057 -32.110488 180.000033 -69.984649 156.162695 12.086250 -12.855609 0.000000 23.415900 0.000000 0.895972 -38.179244 3.223372 26.039027 -180.000035 -70.480459 -173.903165 6.079034 -5.514710 0.000000 
